<?xml version="1.0" encoding="iso-8859-1"?>
<!-- Generator: Adobe Illustrator 19.0.0, SVG Export Plug-In . SVG Version: 6.00 Build 0)  -->
<svg version="1.1" id="Capa_1" xmlns="http://www.w3.org/2000/svg" xmlns:xlink="http://www.w3.org/1999/xlink" x="0px" y="0px"
	 viewBox="0 0 512 512" style="enable-background:new 0 0 512 512;" xml:space="preserve">
<path style="fill:#4CDBC4;" d="M333.866,49.067h-268.8c-11.733,0-21.333,9.6-21.333,21.333v420.267
	c0,11.733,9.6,21.333,21.333,21.333h333.867c11.733,0,21.333-9.6,21.333-21.333v-355.2L333.866,49.067z"/>
<path style="fill:#F2F2F2;" d="M468.266,441.6V91.733L376.532,0H113.066c-11.733,0-21.333,9.6-21.333,21.333V441.6
	c0,11.733,9.6,21.333,21.333,21.333h333.867C458.666,462.933,468.266,453.333,468.266,441.6z"/>
<path style="fill:#CDD6E0;" d="M376.532,75.733c0,9.6,7.467,17.067,17.067,17.067h74.667L376.532,0V75.733z"/>
<rect x="302.929" y="160" style="fill:#FFD15C;" width="128" height="26.667"/>
<g>
	<rect x="129.07" y="219.73" style="fill:#CDD6E0;" width="301.87" height="26.667"/>
	<rect x="129.07" y="279.47" style="fill:#CDD6E0;" width="301.87" height="26.667"/>
</g>
<g>
	<rect x="129.07" y="339.2" style="fill:#ACB3BA;" width="301.87" height="26.667"/>
	<rect x="129.07" y="398.93" style="fill:#ACB3BA;" width="138.67" height="26.667"/>
</g>
<rect x="130.13" y="38.4" style="fill:#84DBFF;" width="137.6" height="148.27"/>
<g>
</g>
<g>
</g>
<g>
</g>
<g>
</g>
<g>
</g>
<g>
</g>
<g>
</g>
<g>
</g>
<g>
</g>
<g>
</g>
<g>
</g>
<g>
</g>
<g>
</g>
<g>
</g>
<g>
</g>
</svg>
