<svg id="Capa_1" enable-background="new 0 0 512 512" height="512" viewBox="0 0 512 512" width="512" xmlns="http://www.w3.org/2000/svg"><g><g fill="#f9f9f9"><path d="m30 67v-22c0-8.271 6.729-15 15-15l8-14-8-16c-24.813 0-45 20.187-45 45v7c0 8.284 6.716 15 15 15z"/><path d="m121 45v22c0 8.284 6.716 15 15 15s15-6.716 15-15v-22c0-8.271 6.729-15 15-15l8-13-8-17c-24.813 0-45 20.187-45 45z"/><path d="m241 45v22c0 8.284 6.716 15 15 15s15-6.716 15-15v-22c0-8.271 6.729-15 15-15l16-14-16-16c-24.813 0-45 20.187-45 45z"/></g><path d="m256 82c8.284 0 15-6.716 15-15v-22c0-8.271 6.729-15 15-15l16-14-16-16c-11.517 0-22.032 4.353-30 11.495z" fill="#e2dff4"/><path d="m361 45v22c0 8.284 6.716 15 15 15s15-6.716 15-15v-22c0-8.271 6.729-15 15-15l16-16-16-14c-24.813 0-45 20.187-45 45z" fill="#e2dff4"/><path d="m0 167v330c0 8.284 6.716 15 15 15h482c8.284 0 15-6.716 15-15v-330c0-8.284-6.716-15-15-15h-482c-8.284 0-15 6.716-15 15z" fill="#f9f9f9"/><path d="m497 152h-241v360h241c8.284 0 15-6.716 15-15v-330c0-8.284-6.716-15-15-15z" fill="#e2dff4"/><g><path d="m512 67c0-8.284-6.716-15-15-15h-497v115h512z" fill="#ff6c6c"/></g><path d="m497 52h-241v115h256v-100c0-8.284-6.716-15-15-15z" fill="#ff405c"/><g><g><path d="m45 0v30c8.271 0 15 6.729 15 15v62c0 8.284 6.716 15 15 15s15-6.716 15-15v-62c0-24.813-20.187-45-45-45z" fill="#f9f9f9"/><path d="m166 0v30c8.271 0 15 6.729 15 15v62c0 8.284 6.716 15 15 15s15-6.716 15-15v-62c0-24.813-20.187-45-45-45z" fill="#f9f9f9"/><g fill="#e2dff4"><path d="m286 0v30c8.271 0 15 6.729 15 15v62c0 8.284 6.716 15 15 15s15-6.716 15-15v-62c0-24.813-20.187-45-45-45z"/><path d="m406 0v30c8.271 0 15 6.729 15 15v62c0 8.284 6.716 15 15 15s15-6.716 15-15v-62c0-24.813-20.187-45-45-45z"/></g></g><g><circle cx="151" cy="337" fill="#ff6c6c" r="105"/><path d="m151 232v210c57.897 0 105-47.103 105-105s-47.103-105-105-105z" fill="#ff405c"/><circle cx="151" cy="337" fill="#f9f9f9" r="75"/><path d="m151 262v150c41.355 0 75-33.645 75-75s-33.645-75-75-75z" fill="#e2dff4"/><g><path d="m119.181 368.819c-5.858-5.858-5.858-15.355 0-21.213l16.819-16.819v-33.787c0-8.284 6.716-15 15-15 8.284 0 15 6.716 15 15v40c0 3.979-1.58 7.794-4.394 10.606l-21.213 21.213c-5.857 5.858-15.355 5.858-21.212 0z" fill="#145481"/></g><path d="m151 282v76.213l10.606-10.606c2.814-2.813 4.394-6.628 4.394-10.607v-40c0-8.284-6.716-15-15-15z" fill="#002659"/></g><g><path d="m436 262h-120c-8.284 0-15-6.716-15-15s6.716-15 15-15h120c8.284 0 15 6.716 15 15s-6.716 15-15 15z" fill="#002659"/></g><g fill="#002659"><circle cx="316" cy="307" r="15"/><circle cx="376" cy="307" r="15"/><circle cx="436" cy="307" r="15"/><circle cx="316" cy="367" r="15"/><circle cx="376" cy="367" r="15"/><circle cx="436" cy="367" r="15"/><circle cx="316" cy="427" r="15"/><circle cx="376" cy="427" r="15"/><circle cx="436" cy="427" r="15"/></g></g></g></svg>